<svg width="25" height="21" viewBox="0 0 25 21" fill="none" xmlns="http://www.w3.org/2000/svg">
<path d="M6.89722 8.90674H1.69653C0.761035 8.90674 0 8.1457 0 7.21021V2.00952C0 1.07402 0.761035 0.312988 1.69653 0.312988H6.89722C7.83272 0.312988 8.59375 1.07402 8.59375 2.00952V7.21021C8.59375 8.1457 7.83272 8.90674 6.89722 8.90674ZM1.69653 1.87549C1.62261 1.87549 1.5625 1.9356 1.5625 2.00952V7.21021C1.5625 7.28413 1.62261 7.34424 1.69653 7.34424H6.89722C6.97114 7.34424 7.03125 7.28413 7.03125 7.21021V2.00952C7.03125 1.9356 6.97114 1.87549 6.89722 1.87549H1.69653Z" fill="#153051"/>
<path d="M6.89722 20.2349H1.69653C0.761035 20.2349 0 19.4738 0 18.5383V13.3376C0 12.4021 0.761035 11.6411 1.69653 11.6411H6.89722C7.83272 11.6411 8.59375 12.4021 8.59375 13.3376V18.5383C8.59375 19.4738 7.83272 20.2349 6.89722 20.2349ZM1.69653 13.2036C1.62261 13.2036 1.5625 13.2637 1.5625 13.3376V18.5383C1.5625 18.6123 1.62261 18.6724 1.69653 18.6724H6.89722C6.97114 18.6724 7.03125 18.6123 7.03125 18.5383V13.3376C7.03125 13.2637 6.97114 13.2036 6.89722 13.2036H1.69653Z" fill="#153051"/>
<path d="M24.2188 4.21924H11.7188C11.2873 4.21924 10.9375 3.86943 10.9375 3.43799C10.9375 3.00654 11.2873 2.65674 11.7188 2.65674H24.2188C24.6502 2.65674 25 3.00654 25 3.43799C25 3.86943 24.6502 4.21924 24.2188 4.21924Z" fill="#153051"/>
<path d="M19.9219 7.14893H11.7188C11.2873 7.14893 10.9375 6.79912 10.9375 6.36768C10.9375 5.93623 11.2873 5.58643 11.7188 5.58643H19.9219C20.3533 5.58643 20.7031 5.93623 20.7031 6.36768C20.7031 6.79912 20.3533 7.14893 19.9219 7.14893Z" fill="#153051"/>
<path d="M24.2188 15.3521H11.7188C11.2873 15.3521 10.9375 15.0022 10.9375 14.5708C10.9375 14.1394 11.2873 13.7896 11.7188 13.7896H24.2188C24.6502 13.7896 25 14.1394 25 14.5708C25 15.0022 24.6502 15.3521 24.2188 15.3521Z" fill="#153051"/>
<path d="M19.9219 18.4771H11.7188C11.2873 18.4771 10.9375 18.1272 10.9375 17.6958C10.9375 17.2644 11.2873 16.9146 11.7188 16.9146H19.9219C20.3533 16.9146 20.7031 17.2644 20.7031 17.6958C20.7031 18.1272 20.3533 18.4771 19.9219 18.4771Z" fill="#153051"/>
</svg>
