<svg width="25" height="29" viewBox="0 0 25 29" fill="none" xmlns="http://www.w3.org/2000/svg">
<path d="M6.00231 6.82939C5.98068 12.5324 13.0317 15.4903 17.0982 11.4065C18.3153 10.1859 18.9987 8.53248 18.9987 6.80876C18.9987 5.08505 18.3152 3.43166 17.0981 2.21107C13.0151 -1.88719 5.94393 1.1092 6.00231 6.82939ZM8.60989 2.91834C9.51873 2.00819 10.719 1.4471 12.0002 1.33346C12.0288 1.78007 11.8269 2.56479 12.5004 2.59303C12.5661 2.59305 12.6311 2.58013 12.6918 2.555C12.7525 2.52987 12.8076 2.49303 12.8541 2.44658C12.9005 2.40013 12.9374 2.34499 12.9625 2.28429C12.9876 2.2236 13.0006 2.15855 13.0005 2.09286V1.33346C14.2775 1.45893 15.4713 2.02342 16.3786 2.93068C17.2859 3.83794 17.8504 5.0318 17.9759 6.30872C17.5293 6.33728 16.7444 6.1353 16.7162 6.80884C16.7161 6.87453 16.7291 6.93958 16.7542 7.00027C16.7793 7.06096 16.8162 7.11611 16.8626 7.16256C16.9091 7.209 16.9642 7.24585 17.0249 7.27097C17.0856 7.2961 17.1506 7.30903 17.2163 7.30901H17.976C17.8613 8.58996 17.3003 9.78991 16.3909 10.6993C15.4815 11.6086 14.2815 12.1696 13.0005 12.2842C12.9719 11.8376 13.1739 11.0528 12.5004 11.0246C12.4347 11.0246 12.3696 11.0375 12.3089 11.0626C12.2482 11.0878 12.1931 11.1246 12.1466 11.1711C12.1002 11.2175 12.0634 11.2727 12.0382 11.3334C12.0131 11.394 12.0002 11.4591 12.0002 11.5248V12.2843C10.7233 12.1588 9.52937 11.5943 8.62209 10.687C7.71481 9.77975 7.15032 8.58587 7.02485 7.30893C7.47151 7.28038 8.25637 7.48235 8.28457 6.80882C8.28459 6.74313 8.27167 6.67808 8.24654 6.61739C8.22141 6.5567 8.18457 6.50155 8.13812 6.4551C8.09167 6.40865 8.03652 6.37181 7.97583 6.34668C7.91514 6.32155 7.85009 6.30863 7.7844 6.30865H7.02478C7.13856 5.02745 7.69973 3.8272 8.60989 2.91834Z" fill="#153051"/>
<path d="M11.2865 8.52164C11.3522 8.52171 11.4173 8.5088 11.478 8.48365C11.5386 8.4585 11.5938 8.42161 11.6401 8.37509L12.8526 7.16285C12.946 7.06863 12.9987 6.94156 12.9995 6.8089V3.80788C12.997 3.67692 12.9431 3.55218 12.8496 3.46047C12.7561 3.36875 12.6303 3.31738 12.4993 3.31738C12.3683 3.31739 12.2426 3.36877 12.1491 3.46049C12.0555 3.55221 12.0017 3.67695 11.9992 3.80791V6.60177L10.9329 7.66784C10.8645 7.73838 10.8183 7.82738 10.7999 7.92387C10.7815 8.02035 10.7918 8.12011 10.8293 8.21086C10.8669 8.30161 10.9302 8.37938 11.0115 8.4346C11.0927 8.48982 11.1883 8.52008 11.2865 8.52164Z" fill="#153051"/>
<path d="M0.438349 18.9052L9.36716 19.9375C9.45426 19.9477 9.54251 19.9347 9.62302 19.9C9.70353 19.8652 9.77347 19.8098 9.82581 19.7395L11.9999 16.8204V27.2023L3.83696 25.5224V21.2536C3.83492 21.1223 3.78133 20.9971 3.68775 20.905C3.59417 20.8128 3.46811 20.7612 3.33678 20.7612C3.20545 20.7612 3.07939 20.8128 2.98582 20.905C2.89224 20.9971 2.83865 21.1224 2.83662 21.2537V25.9303C2.83667 26.0454 2.87644 26.1571 2.94923 26.2463C3.02202 26.3356 3.12336 26.397 3.23617 26.4202L12.3989 28.3058C12.4714 28.3184 12.5457 28.3153 12.6168 28.2966C12.6879 28.278 12.7542 28.2444 12.8112 28.1979C12.8682 28.1515 12.9146 28.0934 12.9472 28.0275C12.9798 27.9615 12.9979 27.8894 13.0002 27.8159V16.8206L15.1753 19.7417C15.2276 19.812 15.2976 19.8674 15.3781 19.9021C15.4586 19.9369 15.5468 19.9499 15.6339 19.9397L19.2201 19.5248C19.3516 19.5093 19.4716 19.4422 19.5538 19.3383C19.6359 19.2344 19.6735 19.1021 19.6582 18.9705C19.6429 18.839 19.5761 18.7188 19.4724 18.6365C19.3686 18.5541 19.2364 18.5163 19.1048 18.5313L15.8054 18.913L13.496 15.8119H21.1338L23.4032 18.0309L21.6052 18.2412C21.4859 18.261 21.3769 18.3211 21.2965 18.4115C21.2161 18.5019 21.169 18.6171 21.1632 18.7379V25.5224L14.9003 26.8109C14.7719 26.8392 14.6598 26.9169 14.5883 27.0271C14.5167 27.1374 14.4914 27.2713 14.5179 27.4001C14.5443 27.5288 14.6204 27.642 14.7296 27.7151C14.8388 27.7882 14.9724 27.8154 15.1015 27.7908L21.7639 26.4202C21.8767 26.397 21.9781 26.3356 22.0509 26.2463C22.1237 26.1571 22.1634 26.0455 22.1635 25.9303V19.1832L24.5593 18.9047C24.6526 18.893 24.7408 18.8553 24.8139 18.796C24.8869 18.7368 24.9418 18.6582 24.9725 18.5692C25.0032 18.4803 25.0083 18.3846 24.9873 18.2929C24.9663 18.2012 24.9201 18.1172 24.8538 18.0504L21.6882 14.9546C21.5948 14.8629 21.469 14.8115 21.338 14.8115H3.66063C3.52989 14.8115 3.40434 14.8627 3.3109 14.9542L0.146255 18.0509C0.0801004 18.1175 0.0338867 18.2013 0.0128298 18.2928C-0.0082271 18.3843 -0.00328876 18.4799 0.0270875 18.5687C0.0574638 18.6576 0.112069 18.7362 0.184739 18.7956C0.257408 18.8551 0.34525 18.893 0.438349 18.9052ZM3.8648 15.8119H11.5041L9.19571 18.9108L1.59597 18.0321L3.8648 15.8119Z" fill="#153051"/>
</svg>
