<svg width="25" height="26" viewBox="0 0 25 26" fill="none" xmlns="http://www.w3.org/2000/svg">
<path fill-rule="evenodd" clip-rule="evenodd" d="M19.4087 12.0865L19.4857 12.7319C19.4901 12.7743 19.5193 12.8095 19.56 12.8222C19.5611 12.8227 19.5627 12.8233 19.5638 12.8233C19.8538 12.9168 20.1356 13.0335 20.4058 13.1749C20.4443 13.1947 20.491 13.1903 20.5252 13.1634C20.6842 13.0379 20.8729 12.8877 21.0402 12.7578C21.492 12.3996 22.1424 12.4144 22.5815 12.798L22.5837 12.8002C22.8016 12.9928 23.008 13.1986 23.2028 13.4148C23.205 13.417 23.2067 13.4192 23.2089 13.4214C23.593 13.8617 23.6078 14.5132 23.2446 14.971L22.8429 15.4811C22.8165 15.5147 22.8121 15.5604 22.8319 15.5978C22.8325 15.5994 22.833 15.6005 22.8336 15.6016C22.9728 15.8724 23.0894 16.1547 23.1802 16.4452H23.1808C23.1935 16.487 23.2298 16.5167 23.2727 16.5217C23.4741 16.5448 23.7135 16.5729 23.9237 16.5993C24.497 16.6653 24.9461 17.1358 24.9851 17.7169C24.9851 17.7185 24.9851 17.7196 24.9857 17.7207C25.0033 18.0107 25.0033 18.3018 24.9884 18.5924C24.9884 18.5957 24.9884 18.5984 24.9879 18.6017C24.9483 19.1845 24.4981 19.656 23.9176 19.7226L23.2727 19.7997C23.2303 19.8041 23.1951 19.8332 23.1824 19.874C23.1819 19.8751 23.1813 19.8767 23.1813 19.8778C23.0878 20.1678 22.9711 20.4495 22.8297 20.7197C22.8099 20.7583 22.8143 20.805 22.8413 20.8391C22.9667 20.9982 23.117 21.1869 23.2468 21.3542C23.6051 21.806 23.5902 22.4564 23.2067 22.8955L23.2045 22.8977C23.0119 23.1156 22.8061 23.322 22.5898 23.5168C22.5876 23.519 22.5854 23.5206 22.5832 23.5228C22.143 23.9069 21.4915 23.9218 21.0336 23.5586L20.5235 23.1569C20.49 23.1305 20.4443 23.1261 20.4069 23.1459C20.4052 23.1464 20.4041 23.147 20.403 23.1475C20.1323 23.2868 19.85 23.4034 19.5594 23.4942V23.4948C19.5176 23.5074 19.4879 23.5437 19.483 23.5867C19.4598 23.7881 19.4318 24.0274 19.4054 24.2376C19.3393 24.811 18.8688 25.26 18.2877 25.2991C18.2861 25.2991 18.285 25.2991 18.2839 25.2997C17.9939 25.3173 17.7028 25.3173 17.4123 25.3024C17.409 25.3024 17.4062 25.3024 17.4029 25.3019C16.8202 25.2622 16.3486 24.8121 16.282 24.2316L16.205 23.5867C16.2006 23.5443 16.1714 23.5091 16.1307 23.4964C16.1296 23.4959 16.1279 23.4953 16.1268 23.4953C15.8368 23.4018 15.5551 23.2851 15.2849 23.1437C15.2464 23.1239 15.1996 23.1283 15.1655 23.1552C15.0065 23.2807 14.8177 23.4309 14.6504 23.5608C14.1987 23.919 13.5482 23.9042 13.1091 23.5206L13.1069 23.5184C12.889 23.3258 12.6827 23.12 12.4879 22.9038C12.4857 22.9016 12.484 22.8994 12.4818 22.8972C12.0977 22.4569 12.0829 21.8054 12.446 21.3476L12.8477 20.8375C12.8742 20.8039 12.8786 20.7582 12.8587 20.7208C12.8582 20.7192 12.8576 20.7181 12.8571 20.717C12.7179 20.4462 12.6012 20.1639 12.5104 19.8734H12.5099C12.4972 19.8316 12.4609 19.8019 12.418 19.7969C12.2166 19.7738 11.9772 19.7457 11.767 19.7193C11.1936 19.6533 10.7446 19.1828 10.7055 18.6017C10.7055 18.6001 10.7055 18.599 10.705 18.5979C10.6874 18.3079 10.6874 18.0168 10.7022 17.7262C10.7022 17.7229 10.7022 17.7202 10.7028 17.7169C10.7424 17.1341 11.1925 16.6626 11.7731 16.596L12.418 16.5189C12.4603 16.5145 12.4956 16.4854 12.5082 16.4446C12.5088 16.4435 12.5093 16.4419 12.5093 16.4408C12.6029 16.1508 12.7195 15.8691 12.8609 15.5989C12.8808 15.5603 12.8764 15.5136 12.8494 15.4795C12.7239 15.3204 12.5737 15.1317 12.4438 14.9644C12.0856 14.5126 12.1005 13.8622 12.484 13.4231L12.4862 13.4209C12.6788 13.203 12.8846 12.9966 13.1009 12.8018C13.1031 12.7996 13.1053 12.798 13.1075 12.7958C13.5477 12.4117 14.1992 12.3968 14.657 12.76L15.1671 13.1617C15.2007 13.1881 15.2464 13.1925 15.2838 13.1727C15.2855 13.1722 15.2866 13.1716 15.2877 13.1711C15.5584 13.0318 15.8407 12.9152 16.1312 12.8244V12.8238C16.1731 12.8112 16.2028 12.7749 16.2077 12.7319C16.2308 12.5305 16.2589 12.2912 16.2853 12.081C16.3513 11.5076 16.8218 11.0586 17.4029 11.0195C17.4046 11.0195 17.4057 11.0195 17.4068 11.0189C17.6968 11.0013 17.9878 11.0013 18.2784 11.0162C18.2817 11.0162 18.2844 11.0162 18.2877 11.0167C18.8705 11.0564 19.3421 11.5065 19.4087 12.087V12.0865ZM18.3153 12.2125V12.2119C18.3092 12.1619 18.2707 12.1222 18.2212 12.1156C17.9697 12.1024 17.7232 12.1024 17.4772 12.1173C17.4255 12.1211 17.3837 12.1613 17.3776 12.2125L17.3011 12.8591C17.2461 13.3334 16.9165 13.7313 16.4603 13.8743C16.2297 13.947 16.0052 14.0399 15.7895 14.1506C15.3719 14.3685 14.8607 14.3211 14.4876 14.0273C14.3269 13.9035 14.1381 13.7538 13.9725 13.6223L13.972 13.6217C13.9329 13.5904 13.8773 13.5898 13.8377 13.6201C13.6506 13.7885 13.4762 13.9629 13.3127 14.1478C13.2786 14.1869 13.2775 14.2447 13.31 14.2848L13.7122 14.796C14.0094 15.1708 14.0578 15.6853 13.836 16.1084C13.7243 16.323 13.6313 16.5475 13.557 16.7781C13.4162 17.2277 13.0211 17.5557 12.5489 17.6118C12.3481 17.6376 12.1087 17.6652 11.8985 17.6894H11.898C11.8479 17.6954 11.8083 17.7339 11.8017 17.7835C11.7885 18.0349 11.7885 18.2815 11.8033 18.5274C11.8072 18.5792 11.8473 18.621 11.8985 18.627L12.5451 18.7035C13.0194 18.7586 13.4173 19.0882 13.5604 19.5443C13.633 19.7749 13.726 19.9994 13.8366 20.2151C14.0545 20.6328 14.0072 21.144 13.7133 21.5171C13.5895 21.6777 13.4398 21.8665 13.3083 22.0321L13.3078 22.0327C13.2764 22.0717 13.2759 22.1273 13.3061 22.1669C13.4745 22.354 13.6489 22.5285 13.8338 22.6919C13.8729 22.726 13.9307 22.7271 13.9709 22.6947L14.4821 22.2924C14.8568 21.9953 15.3713 21.9468 15.7945 22.1686C16.0091 22.2803 16.2336 22.3733 16.4641 22.4476C16.9137 22.5885 17.2417 22.9836 17.2978 23.4557C17.3237 23.6565 17.3512 23.8959 17.3754 24.1061V24.1067C17.3815 24.1567 17.42 24.1964 17.4695 24.203C17.721 24.2162 17.9675 24.2162 18.2135 24.2013C18.2652 24.1975 18.307 24.1573 18.3131 24.1061L18.3896 23.4595C18.4446 22.9852 18.7742 22.5873 19.2304 22.4443C19.4609 22.3716 19.6854 22.2787 19.9012 22.168C20.3188 21.9501 20.83 21.9975 21.2031 22.2913C21.3638 22.4151 21.5525 22.5648 21.7182 22.6963L21.7187 22.6969C21.7578 22.7282 21.8134 22.7288 21.853 22.6985C22.0401 22.5301 22.2145 22.3557 22.3779 22.1708C22.4121 22.1317 22.4132 22.0739 22.3807 22.0338L21.9784 21.5226C21.6813 21.1478 21.6329 20.6333 21.8546 20.2102C21.9663 19.9956 22.0593 19.7711 22.1336 19.5405C22.2745 19.0909 22.6696 18.7629 23.1417 18.7068C23.3426 18.681 23.5819 18.6534 23.7921 18.6292H23.7927C23.8428 18.6232 23.8824 18.5847 23.889 18.5351C23.9022 18.2837 23.9022 18.0371 23.8873 17.7912C23.8835 17.7394 23.8433 17.6976 23.7921 17.6916L23.1456 17.6151C22.6712 17.56 22.2734 17.2304 22.1303 16.7743C22.0577 16.5437 21.9647 16.3192 21.8541 16.1035C21.6362 15.6858 21.6835 15.1746 21.9773 14.8015C22.1012 14.6409 22.2508 14.4521 22.3823 14.2865L22.3829 14.2859C22.4143 14.2468 22.4148 14.1913 22.3845 14.1517C22.2162 13.9646 22.0417 13.7901 21.8568 13.6267C21.8178 13.5926 21.76 13.5915 21.7198 13.6239L21.2086 14.0262C20.8339 14.3233 20.3194 14.3718 19.8962 14.15C19.6816 14.0383 19.4571 13.9453 19.2265 13.871C18.777 13.7301 18.449 13.335 18.3929 12.8629C18.367 12.6621 18.3395 12.4227 18.3153 12.2125Z" fill="#153051"/>
<path fill-rule="evenodd" clip-rule="evenodd" d="M10.6605 15.3809C10.4905 15.3985 10.3177 15.4079 10.1432 15.4079C7.40948 15.4079 5.19077 13.1886 5.19077 10.4554C5.19077 7.72218 7.40948 5.50293 10.1432 5.50293C12.8764 5.50293 15.0957 7.72218 15.0957 10.4554C15.0957 10.6293 15.0864 10.801 15.0688 10.9705C15.0374 11.2726 14.7667 11.4921 14.4646 11.4607C14.1625 11.4299 13.9429 11.1592 13.9742 10.8571C13.988 10.725 13.9952 10.5908 13.9952 10.4554C13.9952 8.32969 12.2689 6.60348 10.1432 6.60348C8.01698 6.60348 6.29132 8.32969 6.29132 10.4554C6.29132 12.5811 8.01698 14.3073 10.1432 14.3073C10.2792 14.3073 10.414 14.3002 10.5466 14.2864C10.8487 14.255 11.1194 14.4746 11.1508 14.7767C11.1827 15.0788 10.9626 15.3495 10.6605 15.3809Z" fill="#153051"/>
<path fill-rule="evenodd" clip-rule="evenodd" d="M17.8041 8.9888C17.9158 8.86719 18.0512 8.76539 18.2058 8.69111C18.4639 8.56509 18.7885 8.40937 19.0615 8.2784C19.155 8.23383 19.2046 8.12982 19.1803 8.02913C19.0945 7.71657 18.9954 7.41116 18.881 7.11181C18.8425 7.01442 18.7407 6.95774 18.6378 6.97645L17.7028 7.14593C17.1696 7.24333 16.6304 7.00451 16.3442 6.54393C16.1747 6.27155 15.9849 6.01072 15.7791 5.76364C15.4319 5.35204 15.3719 4.76655 15.6289 4.28946C15.7642 4.03578 15.9354 3.71882 16.079 3.45304C16.128 3.3617 16.107 3.24835 16.0289 3.18121C15.7752 2.97871 15.5155 2.78996 15.247 2.61498C15.1589 2.55885 15.0434 2.57261 14.9713 2.64799L14.3143 3.33474C13.9395 3.72708 13.3634 3.8509 12.861 3.6462C12.5638 3.52624 12.2573 3.42663 11.9453 3.34739C11.4226 3.21862 11.0297 2.78006 10.9576 2.243C10.9174 1.9585 10.8696 1.60137 10.8294 1.30202C10.8156 1.19912 10.732 1.11989 10.6291 1.11163C10.305 1.09678 9.98416 1.09622 9.6639 1.11273C9.55935 1.11934 9.47406 1.19857 9.4603 1.30202L9.33264 2.24354C9.26 2.78116 8.86655 3.21973 8.33993 3.3496C8.02848 3.42719 7.72198 3.52679 7.42319 3.6462C6.92464 3.84925 6.34904 3.72543 5.97541 3.33364C5.77566 3.12673 5.52694 2.8659 5.31838 2.64689H5.31783C5.24629 2.57206 5.1324 2.5572 5.04435 2.61058C4.77362 2.78942 4.51389 2.97761 4.26406 3.17956C4.18373 3.24559 4.16116 3.36005 4.21068 3.45194L4.6608 4.28892C4.91833 4.76655 4.85781 5.35259 4.50783 5.76694C4.30148 6.01292 4.11218 6.27375 3.9405 6.54613C3.65656 7.00286 3.11838 7.24168 2.58517 7.14373C2.30232 7.0942 1.94796 7.02928 1.65026 6.9748C1.54791 6.95609 1.44721 7.01112 1.40759 7.10631C1.29313 7.41007 1.19408 7.71547 1.11043 8.02527C1.08402 8.12597 1.133 8.23162 1.22765 8.27729L2.08388 8.68944C2.57252 8.92441 2.86802 9.43452 2.82895 9.97544C2.80639 10.2951 2.80638 10.6176 2.82729 10.939C2.86636 11.4755 2.57086 11.985 2.08277 12.2195C1.82414 12.3455 1.49948 12.5012 1.2271 12.6322H1.22654C1.133 12.6767 1.08402 12.7807 1.10768 12.8814C1.19352 13.194 1.29258 13.4994 1.40759 13.7987C1.44556 13.8961 1.54736 13.9528 1.65026 13.9341L2.58517 13.7646C3.11893 13.6672 3.65766 13.906 3.94381 14.3666C4.11384 14.639 4.30312 14.8998 4.50892 15.1469C4.85615 15.5585 4.91613 16.144 4.65915 16.6211C4.52434 16.8748 4.35321 17.1917 4.20959 17.4575C4.20959 17.4581 4.20903 17.4581 4.20903 17.4581C4.16006 17.5494 4.18096 17.6622 4.25965 17.7293C4.51277 17.9319 4.77251 18.1206 5.04104 18.2956C5.12909 18.3517 5.2452 18.3379 5.31729 18.2626L5.97432 17.5758C6.3485 17.1835 6.92463 17.0597 7.42703 17.2644C7.72418 17.3843 8.03068 17.4839 8.34269 17.5632C8.86545 17.6919 9.2589 18.1305 9.33044 18.6676C9.37061 18.9521 9.41848 19.3092 9.45865 19.6085V19.6091C9.47241 19.712 9.55604 19.7907 9.65894 19.7989C9.68811 19.8006 9.71397 19.8017 9.73984 19.8028C10.043 19.8138 10.2802 20.0691 10.2692 20.3729C10.2582 20.6761 10.0029 20.9138 9.69911 20.9022L9.60171 20.8984C8.96945 20.8626 8.45164 20.3828 8.368 19.7549C8.32783 19.4578 8.28051 19.1028 8.24034 18.8173C8.24034 18.8162 8.23978 18.815 8.23978 18.8134C8.22768 18.7248 8.16276 18.6522 8.07581 18.6307C8.07471 18.6307 8.07361 18.6301 8.07251 18.6301C7.71208 18.5388 7.35826 18.4232 7.01324 18.284C7.01324 18.284 7.01268 18.284 7.01213 18.2835C6.92848 18.2494 6.83274 18.2703 6.77 18.3358C6.56971 18.546 6.32099 18.8062 6.11133 19.0241C5.67717 19.4792 4.97721 19.5629 4.44565 19.2211C4.44455 19.2206 4.44399 19.22 4.44289 19.2195C4.14244 19.0236 3.85189 18.8128 3.57181 18.5889C3.57015 18.5878 3.56851 18.5867 3.56741 18.585C3.07656 18.1844 2.9401 17.4916 3.2411 16.9348C3.38362 16.6706 3.55365 16.3564 3.68902 16.1011C3.68957 16.1 3.69012 16.0989 3.69067 16.0978C3.73304 16.0191 3.72314 15.9223 3.66536 15.8535C3.66481 15.8529 3.66426 15.8518 3.66316 15.8513C3.42544 15.5651 3.20644 15.2641 3.00944 14.9488C3.00944 14.9483 3.00944 14.9483 3.00889 14.9477C2.96156 14.8712 2.87131 14.8311 2.78272 14.8476C2.49658 14.8998 2.14274 14.9642 1.84505 15.0171C1.22599 15.1304 0.610796 14.7865 0.381332 14.1971C0.381332 14.1966 0.380774 14.1955 0.380222 14.1944C0.252008 13.8598 0.141407 13.5181 0.0462093 13.1725C0.04566 13.1703 0.0451145 13.1687 0.0445633 13.1665C-0.116667 12.554 0.17993 11.9135 0.751114 11.6395C1.0213 11.5102 1.34376 11.3555 1.60294 11.2284C1.60404 11.2284 1.60513 11.2279 1.60623 11.2273C1.68712 11.1883 1.7361 11.1041 1.72949 11.0149C1.72949 11.0138 1.72949 11.0127 1.72949 11.0111C1.70473 10.6402 1.70473 10.2682 1.73114 9.8973C1.73114 9.89675 1.73114 9.8962 1.73114 9.89565C1.73774 9.80596 1.68823 9.72066 1.60679 9.68159C1.34486 9.55558 1.0202 9.39986 0.748915 9.2678C0.181032 8.99541 -0.11447 8.35598 0.0462093 7.74408C0.0467606 7.74353 0.046751 7.74243 0.0473022 7.74133C0.140297 7.3952 0.250906 7.05404 0.37747 6.71837C0.378019 6.71617 0.379118 6.71452 0.379669 6.71232C0.609133 6.12242 1.22544 5.77795 1.84835 5.89241C2.1433 5.94633 2.49547 6.01072 2.77996 6.0608C2.78106 6.0608 2.78217 6.06134 2.78327 6.06134C2.87132 6.0773 2.96045 6.03823 3.00778 5.96174C3.00833 5.96119 3.00889 5.96009 3.00944 5.95899C3.20809 5.64423 3.42654 5.34323 3.66591 5.05874C3.66591 5.05819 3.66647 5.05819 3.66647 5.05764C3.7248 4.98886 3.73525 4.89091 3.69233 4.81112C3.55421 4.55579 3.38307 4.23883 3.2411 3.9725C2.94175 3.41838 3.07877 2.72723 3.56851 2.32663C3.56907 2.32608 3.56961 2.32554 3.57071 2.32499C3.8497 2.09938 4.1397 1.88862 4.4396 1.69107C4.44125 1.68997 4.44289 1.68887 4.44454 1.68777C4.9772 1.3455 5.67826 1.42914 6.11518 1.88807C6.32208 2.10487 6.5686 2.36351 6.76945 2.57151C6.77 2.57206 6.7711 2.57316 6.77165 2.57371C6.83328 2.63864 6.92904 2.65955 7.01213 2.62543C7.01268 2.62488 7.01378 2.62488 7.01488 2.62433C7.36045 2.48621 7.71428 2.3712 8.07526 2.28151C8.07581 2.28151 8.0758 2.28151 8.07635 2.28096C8.16385 2.2595 8.22987 2.18631 8.24198 2.09662C8.2805 1.80883 8.32839 1.45225 8.36966 1.1529C8.4533 0.528891 8.97055 0.0501523 9.60227 0.0143845C9.60282 0.0138343 9.60392 0.0138304 9.60502 0.0138304C9.96325 -0.00432868 10.322 -0.00432357 10.6802 0.0121846C10.6824 0.0121846 10.6841 0.0121846 10.6863 0.0121846C11.3186 0.0479524 11.8364 0.527793 11.92 1.15566C11.9602 1.4528 12.0075 1.80773 12.0477 2.09332C12.0482 2.09442 12.0482 2.09552 12.0482 2.09717C12.0603 2.18577 12.1253 2.2584 12.2122 2.27986C12.2133 2.27986 12.2144 2.28041 12.2155 2.28041C12.5759 2.37176 12.9298 2.48731 13.2748 2.62653C13.2754 2.62653 13.2753 2.62654 13.2759 2.62709C13.3595 2.6612 13.4558 2.64029 13.518 2.57481C13.7189 2.3646 13.967 2.10432 14.1767 1.88641C14.6109 1.43134 15.3108 1.3477 15.8429 1.68942C15.8435 1.68997 15.8446 1.69052 15.8451 1.69107C16.1456 1.88697 16.4361 2.09772 16.7162 2.32168C16.7179 2.32278 16.7195 2.32388 16.7212 2.32553C17.2115 2.72613 17.3485 3.41893 17.0469 3.97581C16.9044 4.23994 16.7349 4.55415 16.599 4.80947C16.5984 4.81057 16.5979 4.81167 16.5974 4.81277C16.555 4.89146 16.5649 4.98831 16.6227 5.0571C16.6232 5.05765 16.6243 5.05874 16.6249 5.0593C16.8626 5.34544 17.0816 5.64644 17.2786 5.96174C17.2786 5.96229 17.2791 5.96229 17.2791 5.96284C17.327 6.03933 17.4167 6.07951 17.5053 6.063C17.7914 6.01072 18.1453 5.94634 18.443 5.89351C19.062 5.78016 19.6772 6.12407 19.9067 6.71342C19.9072 6.71397 19.9072 6.71507 19.9078 6.71617C20.036 7.05074 20.1472 7.39245 20.2418 7.73803C20.2424 7.74023 20.2429 7.74188 20.2435 7.74408C20.4047 8.35653 20.1081 8.99705 19.5375 9.27109C19.2667 9.4004 18.9443 9.55503 18.6851 9.68215C18.684 9.68215 18.6829 9.68269 18.6818 9.68324C18.6565 9.69589 18.6339 9.71241 18.6158 9.73222C18.4105 9.95618 18.0622 9.97158 17.8382 9.76633C17.6143 9.56108 17.5988 9.21276 17.8041 8.9888Z" fill="#153051"/>
<path fill-rule="evenodd" clip-rule="evenodd" d="M17.8451 15.4077C19.3639 15.4077 20.5965 16.6403 20.5965 18.1591C20.5965 19.6778 19.3639 20.9105 17.8451 20.9105C16.3264 20.9105 15.0938 19.6778 15.0938 18.1591C15.0938 16.6403 16.3264 15.4077 17.8451 15.4077ZM17.8451 16.5083C16.9339 16.5083 16.1943 17.2478 16.1943 18.1591C16.1943 19.0703 16.9339 19.8099 17.8451 19.8099C18.7564 19.8099 19.4959 19.0703 19.4959 18.1591C19.4959 17.2478 18.7564 16.5083 17.8451 16.5083Z" fill="#153051"/>
</svg>
