<svg width="180" height="180" viewBox="0 0 180 180" fill="none" xmlns="http://www.w3.org/2000/svg">
<g clip-path="url(#clip0_278_2324)">
<g clip-path="url(#clip1_278_2324)">
<path d="M160.305 1.44336H20.3047C9.81128 1.44336 1.30469 9.94995 1.30469 20.4434V160.443C1.30469 170.937 9.81128 179.443 20.3047 179.443H160.305C170.798 179.443 179.305 170.937 179.305 160.443V20.4434C179.305 9.94995 170.798 1.44336 160.305 1.44336Z" stroke="#559AFF" stroke-opacity="0.16" stroke-width="2" stroke-dasharray="8 8"/>
<path d="M147.805 22.9429H32.8047C27.2818 22.9429 22.8047 27.42 22.8047 32.9429V147.943C22.8047 153.466 27.2818 157.943 32.8047 157.943H147.805C153.328 157.943 157.805 153.466 157.805 147.943V32.9429C157.805 27.42 153.328 22.9429 147.805 22.9429Z" fill="#559AFF" fill-opacity="0.1"/>
</g>
</g>
<defs>
<clipPath id="clip0_278_2324">
<rect width="180" height="180" fill="white"/>
</clipPath>
<clipPath id="clip1_278_2324">
<rect width="181" height="181" fill="white"/>
</clipPath>
</defs>
</svg>
