<svg width="1476" height="925" viewBox="0 0 1476 925" fill="none" xmlns="http://www.w3.org/2000/svg">
<g clip-path="url(#clip0_278_2328)">
<g clip-path="url(#clip1_278_2328)">
<path d="M1456.3 746.443H1316.3C1305.81 746.443 1297.3 754.95 1297.3 765.443V905.443C1297.3 915.937 1305.81 924.443 1316.3 924.443H1456.3C1466.8 924.443 1475.3 915.937 1475.3 905.443V765.443C1475.3 754.95 1466.8 746.443 1456.3 746.443Z" stroke="#559AFF" stroke-opacity="0.16" stroke-width="2" stroke-dasharray="8 8"/>
<path d="M1443.8 767.943H1328.8C1323.28 767.943 1318.8 772.42 1318.8 777.943V892.943C1318.8 898.466 1323.28 902.943 1328.8 902.943H1443.8C1449.33 902.943 1453.8 898.466 1453.8 892.943V777.943C1453.8 772.42 1449.33 767.943 1443.8 767.943Z" fill="#559AFF" fill-opacity="0.1"/>
</g>
</g>
<g clip-path="url(#clip2_278_2328)">
<g clip-path="url(#clip3_278_2328)">
<path d="M160.305 1.44336H20.3047C9.81128 1.44336 1.30469 9.94995 1.30469 20.4434V160.443C1.30469 170.937 9.81128 179.443 20.3047 179.443H160.305C170.798 179.443 179.305 170.937 179.305 160.443V20.4434C179.305 9.94995 170.798 1.44336 160.305 1.44336Z" stroke="#559AFF" stroke-opacity="0.16" stroke-width="2" stroke-dasharray="8 8"/>
<path d="M147.805 22.9429H32.8047C27.2818 22.9429 22.8047 27.42 22.8047 32.9429V147.943C22.8047 153.466 27.2818 157.943 32.8047 157.943H147.805C153.328 157.943 157.805 153.466 157.805 147.943V32.9429C157.805 27.42 153.328 22.9429 147.805 22.9429Z" fill="#559AFF" fill-opacity="0.1"/>
</g>
</g>
<defs>
<clipPath id="clip0_278_2328">
<rect width="180" height="180" fill="white" transform="translate(1296 745)"/>
</clipPath>
<clipPath id="clip1_278_2328">
<rect width="181" height="181" fill="white" transform="translate(1296 745)"/>
</clipPath>
<clipPath id="clip2_278_2328">
<rect width="180" height="180" fill="white"/>
</clipPath>
<clipPath id="clip3_278_2328">
<rect width="181" height="181" fill="white"/>
</clipPath>
</defs>
</svg>
