<svg width="25" height="24" viewBox="0 0 25 24" fill="none" xmlns="http://www.w3.org/2000/svg">
<path d="M11.1875 4H4.1875C3.65707 4 3.14836 4.21071 2.77329 4.58579C2.39821 4.96086 2.1875 5.46957 2.1875 6V20C2.1875 20.5304 2.39821 21.0391 2.77329 21.4142C3.14836 21.7893 3.65707 22 4.1875 22H18.1875C18.7179 22 19.2266 21.7893 19.6017 21.4142C19.9768 21.0391 20.1875 20.5304 20.1875 20V13" stroke="#1B6DBA" stroke-width="2" stroke-linecap="round" stroke-linejoin="round"/>
<path d="M18.6875 2.49998C19.0853 2.10216 19.6249 1.87866 20.1875 1.87866C20.7501 1.87866 21.2897 2.10216 21.6875 2.49998C22.0853 2.89781 22.3088 3.43737 22.3088 3.99998C22.3088 4.56259 22.0853 5.10216 21.6875 5.49998L12.1875 15L8.1875 16L9.1875 12L18.6875 2.49998Z" stroke="#1B6DBA" stroke-width="2" stroke-linecap="round" stroke-linejoin="round"/>
</svg>
