<svg width="22" height="22" viewBox="0 0 22 22" fill="none" xmlns="http://www.w3.org/2000/svg">
<path d="M10.0279 1.77026C5.48238 1.77026 1.77966 5.47297 1.77966 10.0185C1.77966 14.564 5.48238 18.2739 10.0279 18.2739C11.9694 18.2739 13.755 17.5935 15.1662 16.4638L18.6019 19.8977C18.7753 20.0639 19.0069 20.1556 19.247 20.1531C19.4872 20.1507 19.7169 20.0543 19.8868 19.8846C20.0568 19.7149 20.1535 19.4854 20.1563 19.2452C20.1591 19.0051 20.0677 18.7734 19.9017 18.5998L16.466 15.1641C17.5967 13.7507 18.2779 11.9622 18.2779 10.0185C18.2779 5.47297 14.5734 1.77026 10.0279 1.77026ZM10.0279 3.60362C13.5826 3.60362 16.4427 6.46381 16.4427 10.0185C16.4427 13.5732 13.5826 16.4405 10.0279 16.4405C6.47319 16.4405 3.613 13.5732 3.613 10.0185C3.613 6.46381 6.47319 3.60362 10.0279 3.60362Z" fill="#BFBFBF"/>
</svg>
