<svg width="25" height="24" viewBox="0 0 25 24" fill="none" xmlns="http://www.w3.org/2000/svg">
<path d="M3.1875 6H5.1875H21.1875" stroke="#BD0005" stroke-width="2" stroke-linecap="round" stroke-linejoin="round"/>
<path d="M8.1875 6V4C8.1875 3.46957 8.39821 2.96086 8.77329 2.58579C9.14836 2.21071 9.65707 2 10.1875 2H14.1875C14.7179 2 15.2266 2.21071 15.6017 2.58579C15.9768 2.96086 16.1875 3.46957 16.1875 4V6M19.1875 6V20C19.1875 20.5304 18.9768 21.0391 18.6017 21.4142C18.2266 21.7893 17.7179 22 17.1875 22H7.1875C6.65707 22 6.14836 21.7893 5.77329 21.4142C5.39821 21.0391 5.1875 20.5304 5.1875 20V6H19.1875Z" stroke="#BD0005" stroke-width="2" stroke-linecap="round" stroke-linejoin="round"/>
<path d="M10.1875 11V17" stroke="#BD0005" stroke-width="2" stroke-linecap="round" stroke-linejoin="round"/>
<path d="M14.1875 11V17" stroke="#BD0005" stroke-width="2" stroke-linecap="round" stroke-linejoin="round"/>
</svg>
